<svg width="351" height="443" viewBox="0 0 351 443" fill="none" xmlns="http://www.w3.org/2000/svg">
<path d="M180 442.929L180 205.929L291.29 90" stroke="#FFB900" stroke-width="40"/>
<path d="M175.5 44C198.482 44 220.431 48.42 240.547 56.4521L208.859 88.1396C198.188 85.4378 187.012 84 175.5 84C100.665 84 40 144.665 40 219.5C40 294.335 100.665 355 175.5 355C250.335 355 311 294.335 311 219.5C311 171.478 286.018 129.292 248.342 105.226L277.149 76.418C321.846 108.229 351 160.46 351 219.5C351 316.426 272.426 395 175.5 395C78.574 395 0 316.426 0 219.5C0 122.574 78.574 44 175.5 44Z" fill="#FFB900"/>
</svg>
